<svg width="18" height="18" viewBox="0 0 18 18" fill="none" xmlns="http://www.w3.org/2000/svg">
<path d="M1.5 1.5L16.5 16.5" stroke="#6A7181" stroke-width="1.5" stroke-linecap="round" stroke-linejoin="round"/>
<path d="M3.75 3.75C3.55109 3.75 3.36032 3.82902 3.21967 3.96967C3.07902 4.11032 3 4.30109 3 4.5V9.75C3 13.5 5.625 15.375 8.7525 16.455C8.91415 16.5152 9.09162 16.5179 9.255 16.4625C11.0175 15.8475 12.615 14.985 13.68 13.68" stroke="#6A7181" stroke-width="1.5" stroke-linecap="round" stroke-linejoin="round"/>
<path d="M6.98169 2.739C7.49654 2.44358 7.98156 2.09897 8.42994 1.71C8.58883 1.57425 8.79095 1.49966 8.99994 1.49966C9.20892 1.49966 9.41105 1.57425 9.56994 1.71C10.8824 2.8575 12.7499 3.75 14.2499 3.75C14.4489 3.75 14.6396 3.82902 14.7803 3.96967C14.9209 4.11032 14.9999 4.30109 14.9999 4.5V9.75C15.0004 10.067 14.9804 10.3836 14.9399 10.698" stroke="#6A7181" stroke-width="1.5" stroke-linecap="round" stroke-linejoin="round"/>
</svg>
