<svg width="13" height="13" viewBox="0 0 13 13" fill="none" xmlns="http://www.w3.org/2000/svg">
<g clip-path="url(#clip0_54_1833)">
<path d="M10.8333 7.04171C10.8333 9.75004 8.93746 11.1042 6.68413 11.8896C6.56613 11.9296 6.43796 11.9277 6.32121 11.8842C4.06246 11.1042 2.16663 9.75004 2.16663 7.04171V3.25004C2.16663 3.10638 2.22369 2.96861 2.32528 2.86702C2.42686 2.76544 2.56463 2.70837 2.70829 2.70837C3.79163 2.70837 5.14579 2.05837 6.08829 1.23504C6.20305 1.137 6.34903 1.08313 6.49996 1.08313C6.65089 1.08313 6.79687 1.137 6.91163 1.23504C7.85954 2.06379 9.20829 2.70837 10.2916 2.70837C10.4353 2.70837 10.5731 2.76544 10.6746 2.86702C10.7762 2.96861 10.8333 3.10638 10.8333 3.25004V7.04171Z" stroke="white" stroke-width="1.08333" stroke-linecap="round" stroke-linejoin="round"/>
<path d="M4.875 6.49996L5.95833 7.58329L8.125 5.41663" stroke="white" stroke-width="1.08333" stroke-linecap="round" stroke-linejoin="round"/>
</g>
<defs>
<clipPath id="clip0_54_1833">
<rect width="13" height="13" fill="white"/>
</clipPath>
</defs>
</svg>
